<svg id="Capa_1" data-name="Capa 1" xmlns="http://www.w3.org/2000/svg" viewBox="0 0 68.7 82.03"><defs><style>.cls-1{fill:#ff6d00}</style></defs><path class="cls-1" d="M1038.54 1751.47a36.47 36.47 0 00-8.35-19.54 37 37 0 012.66-2.84 5.15 5.15 0 001.47 1.08c1.1.34 1.83-.64 2.47-1.44s1.58-2 1.08-3.17c-.58-1.36-2.5-2.52-3.59-3.43-1.26-1-2.74-2.57-4.25-3.08s-2.36.48-3.16 1.49c-.64.8-1.4 1.46-.95 2.49a4.79 4.79 0 001 1.38c-.74.8-1.48 1.6-2.19 2.42a32.91 32.91 0 00-13.33-5.16c-.07-.79-.11-1.58-.11-2.37a5.68 5.68 0 001.84-.22c1.54-.56 1.56-1.28 1.65-3 .1-2 .38-5.27-1.38-6.57-2.07-1.53-6.82-.74-9.18-.75-4.63.15-11.12-1.27-11.39 4.81-.05 1.23-.45 4 .67 5a5.47 5.47 0 003.1.9c0 .87 0 1.74.05 2.62a.93.93 0 00.05.21 35.13 35.13 0 00-24.1 21.08c-5.25 13.2-1.95 30.31 9.5 39.41 4.31 3.42 9 6.4 14.49 7.21 8.37 1.24 17.64.79 25.22-3.29a36.64 36.64 0 0013.06-12.45c3.85-6.34 4.53-15.59 3.65-22.78m-8.82-30.48c.89.14 2.57 1.93 3.27 2.46a15.94 15.94 0 012.54 2.19c.67.88.11 1.94-.73 2.59a43.4 43.4 0 01-3.71-2.93 16.62 16.62 0 01-3.28-2.94c.48-.69 1.27-1.49 1.92-1.39m-1.34 4.64c.6.45 1.21.87 1.7 1.26l1.32 1c-.83.85-1.68 1.7-2.44 2.61-.58-.61-1.17-1.22-1.8-1.79-.3-.27-.63-.5-.94-.76.7-.8 1.43-1.57 2.16-2.35m-33.66-9.59a7.09 7.09 0 010-2.43c.4-2.09 1.55-2.36 3.71-2.7a47.93 47.93 0 015.81-.24c1.74 0 3.52-.08 5.26.08s2.71.08 3.28 2a7.92 7.92 0 01.15 3.4c-.66 1.75-2.09 1.2-4 1.25-2.09.05-4.18.14-6.27.15s-7.18.69-8-1.49m3.77 3.5c1.37 0 2.69-.13 3.53-.14 2.08 0 4.16-.08 6.24-.14h1.18q0 1.09.09 2.17c-1.41-.17-2.82-.29-4.2-.32a37.39 37.39 0 00-6.8.77v-2.38m36.87 49.07c-1.81 6-6.65 10.9-11.59 14.59-6 4.49-13.48 5.61-20.81 5.46a28 28 0 01-16.41-5 33 33 0 01-13.67-34.79 33.67 33.67 0 0132.47-25.86c15 .31 27 9.38 30.6 24.16a42.69 42.69 0 01-.58 21.43" transform="translate(-970.19 -1708.57)"/><path class="cls-1" d="M1022 1733.59h-.1a1 1 0 00-.09-.1c-10.41-7.3-24.22-7.52-34.52.28-9.62 7.29-13.7 20.37-10.44 32 3 10.91 17.57 19.76 28.5 19.1 3.45-.21 7.55-.81 10.51-2.62a45.15 45.15 0 0013-12.63c8.12-12.12 4.15-27.42-6.85-36m8.86 16.87c1.47 8.34-1.38 16.31-7.11 22.39-3.79 4-7.81 8.09-13.32 9.3-6.06 1.33-12.06 1-17.61-2.1-6.2-3.46-13.1-9.08-14.5-16.39-1.46-7.62-.27-15.91 4.2-22.32 8.79-12.62 26-14.92 38.3-6.31 4.9 3.86 9 9.2 10.05 15.44" transform="translate(-970.19 -1708.57)"/><path class="cls-1" d="M1017 1741.45l-10.73 10.87a3.68 3.68 0 00-4.74-.15c-1.6 1.28-2.26 4.51-.76 6.1a4.64 4.64 0 006 .36 3.79 3.79 0 00.73-4.86l10.86-11a.94.94 0 00-1.32-1.32m-14.61 15.75c-.82-.62-.65-2.33-.11-3.12a1.92 1.92 0 013.14 0l.08.07a1.22 1.22 0 00.06.11c1.87 2.24-1 4.57-3.17 3M993.72 1736.62c-6.28 3.35-9.52 9.57-11.13 16.27a.94.94 0 001.8.5c1.5-6.26 4.39-12 10.27-15.15a.94.94 0 00-.94-1.62M983 1757.25a.94.94 0 000 1.87.94.94 0 000-1.87" transform="translate(-970.19 -1708.57)"/></svg>