<svg id="Capa_1" data-name="Capa 1" xmlns="http://www.w3.org/2000/svg" viewBox="0 0 82 59.44"><defs><style>.cls-1{fill:#ff6d00}</style></defs><path class="cls-1" d="M1511.51 1759.76a.66.66 0 00-.06-.28.82.82 0 00-.06-.15c-4.43-5.89-9-11.7-13.77-17.28-4.36-5-9.09-11-14.77-14.62-8.31-5.27-19.21-2.88-29.08 0v-.07c-1.49-2.57-3.75-4.12-6.8-3.24a3.77 3.77 0 00-2.77 2.6c-.27 1.18.56 2.27 1.39 3.11-18.12 1.76-22.46 32.77-4.92 42.15 5.22 2.79 9.74 4.29 15.59 2.32.27-.09.49-.22.74-.32a.94.94 0 00.45-.1c4.24-2.17 8.58-4.12 12.82-6.29 6 5.42 12.12 10.66 18.5 15.57a.72.72 0 001 0c7.31-3.49 13.94-8 21.28-11.44a.91.91 0 00.46-.81c-.19-3.68 0-7.36 0-11m-27.51-29.27c9.71 8.14 17.64 18.81 25.22 28.9a58.49 58.49 0 01-9.72 5c-1.47.63-2.95 1.23-4.4 1.92-1 .47-4.22 2.9-5.23 2.64-1.48-.38-4.21-4.71-5.24-5.87q-3.35-3.75-6.67-7.53c-4.44-5.05-8.87-10.14-13-15.41-3.18-4-5.9-7.7-11-9.42a23.5 23.5 0 00-2.89-.77c11.08-3.34 24-7 32.93.5m-37.76-4c.46-.93 2.29-1 3.12-.87a4.28 4.28 0 012.55 2.18l-4.32 1.3a.91.91 0 00-.18-.25c-.59-.55-1.62-1.42-1.17-2.35m-11.24 38.27c-6.72-8.73-5.34-26.31 5.48-31.54a15.47 15.47 0 012.24-.87.89.89 0 00.23 0l1.06-.28a17 17 0 0115 3.93c3.34 3.18 6 7.41 8.94 10.94 6.78 8.09 13.87 15.91 20.89 23.79-.07 3.2-.33 6.39-.5 9.58-7.89-6.16-15.44-12.83-22.71-19.7a.9.9 0 00-.48-.23.76.76 0 00-1 .42.86.86 0 000 .09.81.81 0 00-.06.14c-1.89 7-5.86 12.64-14 12.28-5.42-.24-11.89-4.38-15.09-8.55m27.85 4.2a23.14 23.14 0 002.63-6q1.64 1.54 3.31 3.06c-2 1-4 2-5.94 2.91m41.34 4c-4.66 2.66-9.16 5.3-14 7.68.17-3.22.43-6.45.51-9.67 6-3.71 12.88-5.73 18.84-9.53 0 2.14-.08 4.27-.06 6.41 0 3.2-2.79 3.67-5.33 5.12" transform="translate(-1429.51 -1723.83)"/><path class="cls-1" d="M1466.69 1739.22a1 1 0 00.14.25c2.15 2.53 2.93 5 6.21 3.73 4.84-1.85 9.91-3.23 14.61-5.43a.94.94 0 00.19-1.47c-2.44-2.52-3.54-4.9-6.9-3.62-4.57 1.74-9.32 3.08-13.73 5.23l-.15.07a.78.78 0 00-.39 1.06.88.88 0 00.05.13m15.11-4.84c1.55-.15 2.77 1.09 3.81 2.25-3.73 1.58-7.65 2.52-11.4 4.05-.6.24-2.37 1.36-2.87 1.24s-1.62-1.63-2.41-2.72c3.08-1.41 6.29-2.41 9.49-3.54a17.58 17.58 0 013.38-1.28M1449.48 1741c-6.37-1.05-9.14 3.25-9.9 8.83-.88 6.45.5 11.31 7.08 13.52 13 4.35 15.13-19.83 2.81-22.35m-2.32 20.55c-4.82-1.43-6.27-4.83-6-9.4s1.54-10.37 7.78-9.34c4.64.95 6.8 5.37 6.74 9.71-.08 5.18-2.16 10.94-8.56 9M1491.42 1766.4a134.37 134.37 0 0114.17-6.48c1.11-.43.63-2.24-.5-1.8a138.8 138.8 0 00-14.62 6.67.94.94 0 00.94 1.62M1439.57 1736.6c-4.7 3.44-6.64 8.71-6.73 14.41a.94.94 0 001.87 0c.08-5 1.66-9.76 5.8-12.8 1-.7 0-2.33-.94-1.62M1442.89 1736.63a.94.94 0 000-1.87.94.94 0 000 1.87" transform="translate(-1429.51 -1723.83)"/></svg>