<svg id="Capa_1" data-name="Capa 1" xmlns="http://www.w3.org/2000/svg" viewBox="0 0 109.68 109.16"><defs><style>.cls-1{fill:#ff6d00}</style></defs><path class="cls-1" d="M1490.39 2915c-7.69-8.73-21.73-5.33-32.14-5.45-3.43-5-9.32-7.69-16.79-8.53a20.87 20.87 0 00-17.57 8.94c-7.34-.06-14.83-.59-22.15 0-4 .32-7.92 1.14-10.64 4.27s-3.81 7.82-4.09 11.92c-.43 6.28-.4 12.7-.63 19-.27 7 .29 14.06.12 21.09-.2 8.21-.81 16.43-.37 24.64.36 6.8 1.25 16 9.09 17.66 13.13 2.85 28.25 1.15 41.6.95 14.22-.22 28.48.8 42.68-.17 10.65-.73 15.23-3.51 15.27-14.75.06-14.82-.06-29.65.18-44.47.17-10.68 3.13-26.37-4.56-35.1m-48.93-11.12c9.41 1.05 16.79 5.88 17.23 16s-6.82 19.39-17.52 19.33c-9.5-.05-18-8.23-18-17.91s8.73-17.81 18.32-17.44m50.75 40.71c-.22 11.17-.27 22.35-.29 33.52v15.42c0 2.33.35 5.52-.54 7.69-2.2 5.36-8.48 5-13.07 5.32-10.67.64-21.38.15-32.06.05s-21.41.47-32.12.2c-5-.13-10.43 0-15.42-.79-6.71-1-8.56-5.51-9.4-11.34-1.66-11.46.23-23.44.11-35-.11-10.93-.08-21.85.44-32.78.43-9.12 5-13.79 14.34-14.2 6-.26 12 0 18 .08a19.11 19.11 0 00-1.92 7.45c-.54 11.46 9.48 22.15 21 22.1s20.44-10.1 20.24-21.26a22.39 22.39 0 00-1.77-8.71c3.49 0 7-.2 10.46-.13 4.54.1 10.7-.74 14.65 1.69 9.72 6 7.48 20.85 7.29 30.64" transform="translate(-1385.97 -2901.05)"/><path class="cls-1" d="M1438.37 2923.78c1.73 1.3 3.8 1.46 5.16-.44a3.63 3.63 0 000-4.39 1.18 1.18 0 00-.16-.46c.77-2.11 1.52-4.22 2.27-6.34.61-1.74-2.14-2.48-2.75-.76q-1.07 3-2.17 6.06c-3.18.09-5.68 3.84-2.39 6.32m2.47-3.5a1.57 1.57 0 00.36.16l.06.06c.87.63-.67 2.24-1.43.74-.37-.72.36-1 1-1M1482.8 2958.49c.16-4.52 1.1-10.82-.46-15.15a7.7 7.7 0 00-6.44-5.15c-3.39-.5-10.39-.75-13.63.91-1.59.82-2.79 3.08-4.06 4.23a25.6 25.6 0 01-10.23 5.32c-9.36 2.6-18.35-.54-25.48-6.71-4.14-3.69-15.54-3.79-20.29-1.47-6.36 3.11-4.19 11.88-4 17.54.3 10.68-1.1 22.35.75 32.88.85 4.85 3.17 7.5 8 8.42 6.24 1.18 13.53 1 19.9 1.27 6.58.3 13.18 0 19.75-.32 6-.31 12.09-.71 18.15-.78 4.82-.05 9.44 1 13.66-1.66 7-4.46 4.59-13.45 4.29-20.63-.26-6.25-.13-12.45.09-18.7m-3.25 33.52c-1.94 4.92-6.29 4.44-11 4.61-11.68.41-23.43 1.19-35.11 1.23-5.74 0-11.35-.63-17.06-1-5.17-.32-12.25 1.37-14.32-4.81-1.53-4.56-.79-10.46-.74-15.21.06-5.46 0-10.89-.2-16.35s-2.64-15.06 3.74-17.75c3.36-1.42 12.85-1.26 15.63 1.22 6.38 5.52 14.35 9.31 23 8.48a32 32 0 0011.76-3.62c3.67-2 6.44-6.27 10.37-7.51a22 22 0 017.07-.24q5.4-1.12 7.21 5.6.14 2 .15 3.93c.11 5.68-.38 11.34-.43 17-.05 5.43.36 10.84.5 16.26.07 2.72.43 5.55-.58 8.12M1428.95 2920.1c.29-3.41 2-7 5.09-8.74 1.61-.89.17-3.36-1.44-2.46-4 2.21-6.13 6.8-6.51 11.21-.16 1.83 2.7 1.82 2.85 0M1427.24 2923a1.43 1.43 0 000 2.85 1.43 1.43 0 000-2.85" transform="translate(-1385.97 -2901.05)"/></svg>