<svg id="Capa_1" data-name="Capa 1" xmlns="http://www.w3.org/2000/svg" viewBox="0 0 143.03 124.95"><defs><style>.cls-1{fill:#ff6d00}</style></defs><path class="cls-1" d="M548.46 2335.48c-9.79-12.28-35.53-14.36-42.16 1.17a25.5 25.5 0 00-12.25-8.87c-11.85-4.18-23-.86-31.49 7.36 0-.59.12-1.15.12-1.76 0-10.29-.3-22.25 3.45-32.14 2.8 2.8 7.91 4 11.18 3.82 8.33-.38 16.2-1.06 19.55-9.9 3.13-8.29-.5-17.89-6.26-24-4.06-4.35-5.59-4.46-11.48-4.12a146.24 146.24 0 00-17.36 1.67c-9.59 1.72-17.54 16.43-22.16 24.3-13.73 23.42-26.37 49.15-28.4 76.59a1.7 1.7 0 00.8 1.4c36.32 23.91 90 29.16 127.92 5.44 13.82-8.64 19.42-27.31 8.51-41m-11.36 38.67c-19.87 11.6-44.27 15.47-67 13.49a124.49 124.49 0 01-33.85-7.81 113.36 113.36 0 01-17.08-8.29c-6.92-4.11-3.6-12.58-2-19.35 3.15-13.14 8.6-25.6 14.67-37.62 5.93-11.74 12-23.71 20.36-33.91 2.43-2.94 4.74-5.94 8.17-7.64 4.3-2.13 9.78-2.07 14.53-2.38 4.31-.28 8.69-.94 12.39 2 3.14 2.49 5.48 7.07 6.45 10.85 1.28 4.94.89 12-3.59 15.26-3.16 2.33-7.54 2.41-11.39 2.76a18.64 18.64 0 01-3.53.3c-3.06-.37-8.47-3.76-5.73-7.6 1.17-1.64 6.14-2.44 8-2.38 2.19.06 2.19-3.35 0-3.4-4.11-.11-12.84 2.31-13.4 7.48a6.77 6.77 0 000 1.29c-3.58 7.67-4.21 16.41-4.58 24.76-.21 4.56.09 9.22-.26 13.76-.64 8.47-6.51 15.23-12.34 21.09a1.7 1.7 0 002.41 2.41c5.65-5.69 10.27-11.24 12.24-18.21a1.56 1.56 0 00.4-.32c8.08-9.68 19.6-14.16 31.77-9.33 4.52 1.79 9.6 5.29 11.28 10.14.5 1.45 3 1.78 3.28 0 3.59-19.27 33-14 39.83.21 6.16 12.73.52 25.67-11.09 32.44" transform="translate(-411.18 -2266.88)"/><path class="cls-1" d="M500 2359c-5.46 4.82-10.42 6.87-17.7 6.42-7-.43-13.38-1.41-19.24-5.39-1.82-1.23-3.52 1.72-1.72 2.94 6.9 4.68 15 5.73 23.16 6 7.25.21 12.52-2.78 17.9-7.53 1.65-1.45-.77-3.85-2.41-2.41" transform="translate(-411.18 -2266.88)"/></svg>