<svg data-name="Capa 1" xmlns="http://www.w3.org/2000/svg" viewBox="0 0 94.48 86.05"><path d="M72.91.52c-10.42-1.58-21.68 4-25.3 13.79a22.27 22.27 0 00-10-11.08C30.26-.88 23.03-.94 15.16 2.37 9.08 4.93 4.31 11.66 1.79 17.52c-3.19 7.4-1.58 16.45.41 24a1.12 1.12 0 002.16-.6C1.05 28.41 1.6 14.6 13 6.22 18.35 2.29 27.57.9 33.53 3.62c6.24 2.85 12.45 8.43 12.93 15.72a1.12 1.12 0 002.24 0c1.17-13.35 17.55-20.47 29-15 12.19 5.78 17.34 22.15 13.33 34.55-2.53 7.83-12.58 5.88-19.2 5.92-3.76 0-7.51.06-11.27 0h-2.52c-.59-.36-2.11-4.85-2.47-5.76a1.13 1.13 0 00-2.2.3c-.74 5.81-2.26 11.46-3.46 17.18-1.17-9.61-1.65-19.31-3.25-28.87a1.13 1.13 0 00-2.16 0l-4.63 20-2.07-9.3a1.13 1.13 0 00-2.16 0c-.24 1.54-.62 5.73-1.66 6.46-.71.5-3.39 0-4.31 0l-12.21-.08c-4.45 0-11.43-.92-11.23 5.75.1 3.49 3.34 7 5.41 9.62a61.93 61.93 0 0010.34 9.92c7.75 6.06 16.4 10.76 24.77 15.88a1.13 1.13 0 001.13 0 124.09 124.09 0 0038.18-32.52c.89-1.12-.69-2.71-1.59-1.58-7.13 8.93-15 17.4-24.42 23.92-3 2.08-9.58 8.06-13.32 7.54-1.76-.24-4.18-2.49-5.71-3.4-2.35-1.4-4.7-2.8-7-4.25a105.74 105.74 0 01-14.59-10.64c-2.69-2.42-16.14-15.29-7.28-18 3.34-1 8.81.06 12.32.08l10.44.06a1.15 1.15 0 001.08-.82c.27-.85.51-1.7.75-2.54l2.07 9.32a1.13 1.13 0 002.16 0l4.4-19c1.27 10 1.72 20 3.38 29.94.23 1.36 2.06.84 2.2-.3.85-6.76 2.77-13.31 4-20 .76 1.68 1.81 3 3.85 3.34 5.08.82 11 0 16.15 0 4.72 0 11 1 14.93-2.17 3.42-2.76 4.1-7.65 4.46-11.75C95.55 19.29 87.95 2.89 72.89.62"/></svg>