<svg data-name="Capa 1" xmlns="http://www.w3.org/2000/svg" viewBox="0 0 82.33 46.27"><path d="M82.25 24.12c-.05-.72-.15-1.43-.17-2.15a3.86 3.86 0 00-.37-2.38c-.85-1.12-2.38-1-3.67-.94 0-1.88-.08-3.77-.08-5.65 0-1.3.44-3.52-.36-4.67-1.3-1.9-5.11-1.66-7.4-1.72v-1C69.78.75 67.14-.01 62.48-.05c-5.15 0-6.49 1.78-6.84 6.83-.28 4-.38 8-.44 12-4.91.41-10.16-.17-15.1-.11-4.23 0-8.5.08-12.73.24-.06-4-.17-8-.45-11.9-.35-5-1.68-6.86-6.84-6.83-3.6 0-7.29.34-7.76 4.44-.08.72-.14 1.44-.18 2.17-2.25 0-5.76-.15-7.06 1.5-1.67 2.11-.9 7.71-.92 10.17v.26a7.67 7.67 0 00-3.07.23c-1.51.64-1 3.22-.94 4.5s-.47 3.47 1.21 3.82a11.14 11.14 0 002.62.18 37.79 37.79 0 00.88 9c.87 3.44 4.18 3.43 7.39 3.49 0 .44 0 .9.07 1.34.38 4.36 2.77 4.65 6.63 4.71 2.45 0 6.32.9 7.75-1.56.84-1.46.67-4 .72-5.61.11-3.49.08-7 .05-10.48v-.84c9.19-.11 18.47.35 27.64-.14v9.36c0 2-.3 4.58.35 6.51 1.11 3.29 5 2.56 7.89 2.52 3.28-.05 6 .16 6.78-3.62a15.82 15.82 0 00.28-2.43c3.06-.06 6.41-.07 7.28-3.37a31.13 31.13 0 00.68-8.6 6.42 6.42 0 003.06-.41c1.17-.59.94-2.19.86-3.29M2.02 25.51c-.09-.83 0-1.77 0-2.58v-1.51a1.34 1.34 0 000-.81 7 7 0 011.26 0h.91c0 1.62-.1 3.32-.13 5a8.47 8.47 0 01-2-.12m4.57 9.38a25.42 25.42 0 01-.28-4.56c-.2-4-.31-7.92-.28-11.88 0-2.33-.24-5.11.3-7.39.64-2.67 3.23-2.36 5.74-2.42-.08 4.37.33 8.84.25 13.14-.1 5.31-.4 10.9-.18 16.29-2.94 0-4.74.12-5.55-3.18m18.91 5.29c-.13 2 .08 3.48-2.07 4a20.15 20.15 0 01-4.17 0c-2.27 0-4.43-1-5.08-3.41-.47-1.71.06-4.29 0-6.08 0-4.29-.11-8.58 0-12.87.05-2.84 0-5.67-.08-8.51 0-2.25.15-4.48.13-6.73 0-3.69 2.45-4.54 5.83-4.53a5.87 5.87 0 014.69 2.33c.54.85.28 2.93.33 4 .11 2.19.15 4.4.22 6.59q.19 6.31.26 12.62c0 4.19.2 8.45-.08 12.63m1.94-14.55v-4.89c4.23-.16 8.48-.19 12.71-.24 4.93-.06 10.17.51 15.07.11q0 2.44-.06 4.88c-9.18.49-18.47 0-27.67.14m41-12.6c-.07 2.84-.14 5.67-.08 8.51.08 4 0 8 0 12.06-.05 4.44 1.3 10.18-5 10.28-1 0-3 .4-4 0-2.82-1.25-2.31-3.43-2.35-5.72q-.12-5.95 0-11.89c.05-4.12.16-8.25.29-12.37.14-4.45-1.2-12.13 5.22-12.08 3.81 0 5.28 1.28 5.9 5.28a34 34 0 01.06 6m7.76 17.62a20.58 20.58 0 01-.23 4.17c-.8 3.14-2.77 3-5.55 3 0-2-.21-4-.19-5.86.05-3.48.06-6.95 0-10.43-.08-4.37.23-8.77.1-13.15a15.48 15.48 0 013.47.3c2.09.57 2.13.78 2.34 3.14.27 2.92.07 6 .1 8.92 0 3.3.07 6.6 0 9.9m2.1-4.85c-.07-1.75-.17-3.46-.19-5v-.31h1.29c.63 0 .64-.11.83.38a5.93 5.93 0 010 1.49c0 .53.1 1.06.15 1.6s.05.86 0 1.29a3.53 3.53 0 000 .45.52.52 0 01-.19.05c-.65 0-1.29.06-1.94.07" fill="#ff6d00"/></svg>