<svg id="Capa_1" data-name="Capa 1" xmlns="http://www.w3.org/2000/svg" viewBox="0 0 41.58 41.58"><defs><style>.cls-1{fill:#fff}</style></defs><path class="cls-1" d="M1847 9143h-25a8.32 8.32 0 01-8.31-8.31v-25a8.32 8.32 0 018.31-8.31h25a8.32 8.32 0 018.31 8.31v25a8.32 8.32 0 01-8.31 8.31m-25-37.67a4.41 4.41 0 00-4.4 4.4v25a4.41 4.41 0 004.4 4.4h25a4.41 4.41 0 004.4-4.4v-25a4.41 4.41 0 00-4.4-4.4h-25z" transform="translate(-1813.73 -9101.41)"/><path class="cls-1" d="M1834.51 9131.95a9.75 9.75 0 119.75-9.75 9.76 9.76 0 01-9.75 9.75m0-15.59a5.84 5.84 0 105.84 5.84 5.85 5.85 0 00-5.84-5.84M1845.75 9107.9a2.8 2.8 0 11-2.8 2.8 2.81 2.81 0 012.8-2.8" transform="translate(-1813.73 -9101.41)"/></svg>