<svg id="Capa_1" data-name="Capa 1" xmlns="http://www.w3.org/2000/svg" viewBox="0 0 27.69 27.69"><defs><style>.cls-1{fill:#0bc9ff}</style></defs><path class="cls-1" d="M205.43 61.19h-16.62a5.54 5.54 0 01-5.53-5.53V39a5.54 5.54 0 015.53-5.53h16.62A5.54 5.54 0 01211 39v16.66a5.54 5.54 0 01-5.54 5.53m-16.65-25.08a2.93 2.93 0 00-2.93 2.89v16.66a2.93 2.93 0 002.93 2.93h16.62a2.93 2.93 0 002.93-2.93V39a2.93 2.93 0 00-2.93-2.93h-16.62z" transform="translate(-183.28 -33.51)"/><path class="cls-1" d="M197.12 53.84a6.49 6.49 0 116.49-6.49 6.5 6.5 0 01-6.49 6.49m0-10.38a3.89 3.89 0 103.88 3.89 3.89 3.89 0 00-3.89-3.89M204.61 37.83a1.87 1.87 0 11-1.87 1.87 1.87 1.87 0 011.87-1.87" transform="translate(-183.28 -33.51)"/></svg>