<svg id="Capa_1" data-name="Capa 1" xmlns="http://www.w3.org/2000/svg" viewBox="0 0 67.32 71.24"><defs><style>.cls-1{fill:#ff6d00}</style></defs><path class="cls-1" d="M1026.66 1918.21a14.13 14.13 0 00-8.61-.29c.17-.18.35-.33.51-.52a15.2 15.2 0 002.6-13.93.9.9 0 00-.12-.21.78.78 0 00-.88-.77 18.13 18.13 0 00-15.59 12.5 26.59 26.59 0 00-9.07-12.22.73.73 0 00-.79-.1h-.08a.85.85 0 00-.16.12.83.83 0 00-.11.08 15.33 15.33 0 00-2.77 6.15.84.84 0 00.2.82.87.87 0 00.46.33 15.64 15.64 0 0110.52 10.84c-5.77-1-10.69-4.61-16.94-3.83-6 .75-10.72 4.91-13.22 10.32-6.46 14 1 30.69 10.1 41.68 4.77 5.75 9.2 5.13 15.73 3 4.73-1.57 7.95-.66 12.55.49 2.55.64 5.42 1.31 8.07.89 6.34-1 10.43-8.71 12.72-14 3.36-7.76 6-15.72 5.71-24.27-.21-7.09-3.85-14.46-10.81-17.1m-7.18-13.75a13.18 13.18 0 01-2.85 12.31c-2.78 2.84-7.07 3.8-10.93 4.36a.88.88 0 000-.25c-.59-8 5.78-15.4 13.75-16.42m-25.86 4.28a13.53 13.53 0 011.6-3.83 24 24 0 017.92 12 17.57 17.57 0 00-9.52-8.18m29.62 60.49c-6.22 5.81-13.15-.37-20.11-.08-3.33.14-6.26 1.88-9.44 2.67-5.68 1.41-9-2.69-11.85-7-4.77-7.23-9.18-15.07-9.75-23.9s3.29-19.94 13.09-21.75c7-1.3 12.4 3.39 19.07 3.9a.87.87 0 00.4 0 20.4 20.4 0 005.65-1 23.31 23.31 0 002.61-.86c4-1.36 7.88-2.78 12-1.66 11.18 3.05 11.84 17 9.72 26.23-1.81 8-5.31 17.72-11.4 23.4" transform="translate(-970.17 -1902.5)"/><path class="cls-1" d="M987.28 1924.7c-6.31 2.6-9.51 10.56-8.44 17 .2 1.19 2 .68 1.8-.5-.88-5.29 1.84-12.5 7.14-14.67 1.1-.45.62-2.26-.5-1.8M980.08 1945.54a.94.94 0 000 1.87.94.94 0 000-1.87" transform="translate(-970.17 -1902.5)"/></svg>