<svg id="Capa_1" data-name="Capa 1" xmlns="http://www.w3.org/2000/svg" viewBox="0 0 250.09 104.35"><defs><style>.cls-1{fill:#fff}</style></defs><path class="cls-1" d="M1038.08 4542.94h-11.51v-.77a2 2 0 001.25-1c5.89-7.9 14.42-56.07 6.52-82.57l-.15-.5h11a3.37 3.37 0 013 2.57c5.33 23.8 2.23 75.3-10.07 82.15zm-10.07-.77h9.87c5.13-3 9.3-15.58 11.15-33.79 1.72-17 1.12-35.59-1.54-47.46a2.6 2.6 0 00-2.64-2h-9.63c4.58 15.9 3.1 37 1.8 48.18-1.84 15.83-5.45 30.37-8.58 34.58a5.89 5.89 0 01-.42.51m-141 .77H875.4c-12.3-6.85-15.4-58.34-10.07-82.15a3.41 3.41 0 013.05-2.6h11l-.15.5c-7.91 26.5.63 74.67 6.52 82.57a2 2 0 001.25 1v.77zm-11.31-.77h9.87a5.61 5.61 0 01-.43-.51c-3.14-4.21-6.74-18.75-8.58-34.58-1.3-11.22-2.78-32.29 1.8-48.18h-9.63a2.59 2.59 0 00-2.64 2c-2.65 11.85-3.26 30.48-1.53 47.45 1.85 18.21 6 30.81 11.14 33.79m148-1.13c-5.53 0-8.89-19.56-9.76-39v-.4h5.22v.36c.74 10.33 2.11 12.65 2.54 12.65a1.88 1.88 0 001.27-1.25c3.8-7.56 1.57-42.34-.47-45.51a1.69 1.69 0 00-.77-1c-.42 0-1.8 2.33-2.54 12.65v.36h-5.16v-.34c-.39-3 1.23-31.76 7.08-37.83a3.31 3.31 0 012.71-1.19c4.93 0 8 15.92 9.22 30.82 1.13 14.48.54 60.52-6.83 68.5a3.3 3.3 0 01-2.42 1.22m-9-38.58c1 21.59 4.84 37.81 9 37.81a2.54 2.54 0 001.85-1c6.74-7.29 7.93-51.29 6.63-67.91-1.47-18-4.88-30.11-8.48-30.11a2.57 2.57 0 00-2.12 1c-5.53 5.74-7.15 32.53-6.9 36.86h3.75c.45-6 1.38-13 3.28-13 .53 0 1 .47 1.46 1.47 2.14 3.48 4.52 38.26.5 46.25a2.53 2.53 0 01-1.93 1.67c-1.93 0-2.86-7-3.3-13h-3.7zM889.92 4541a3.3 3.3 0 01-2.42-1.22c-7.38-8-8-54-6.83-68.5 1.21-14.9 4.28-30.82 9.25-30.82a3.29 3.29 0 012.67 1.19c5.85 6.06 7.47 34.81 7.08 37.83v.34h-5.16v-.36c-.74-10.32-2.11-12.65-2.53-12.65 0 0-.3 0-.78 1-2 3.17-4.27 38-.47 45.51a1.87 1.87 0 001.29 1.25c.4 0 1.77-2.33 2.5-12.65v-.36h5.23v.4c-.87 19.39-4.22 39-9.76 39m.22-99.78H890c-3.64 0-7.05 12.1-8.52 30.11-1.3 16.62-.11 60.62 6.63 67.91a2.54 2.54 0 001.85 1c4.13 0 8-16.23 9-37.81h-3.7c-.45 6-1.37 13-3.27 13a2.53 2.53 0 01-2-1.67c-4-8-1.65-42.78.49-46.25.47-1 .93-1.47 1.47-1.47 1.9 0 2.83 7 3.27 13h3.75c.37-4.91-1.55-31.3-6.9-36.86a2.65 2.65 0 00-1.9-1m164.21 89.86h-6.28l.34-.58c2.84-4.86 6.37-38 3.48-61.88l-.05-.43h8.13a3.52 3.52 0 013.14 2.93v.05c1.63 25.11.17 47-3.62 54.35-1.54 3.68-3.28 5.55-5.16 5.55m-5-.77h5c1.52 0 3.06-1.77 4.46-5.11 3.69-7.2 5.14-29.37 3.55-54a2.71 2.71 0 00-2.41-2.29h-7.25c2.78 23.69-.46 54.79-3.34 61.35m-183.92.77h-6.28c-1.89 0-3.63-1.88-5.18-5.58-3.79-7.38-5.24-29.23-3.6-54.33v-.05a3.49 3.49 0 013.11-2.93h8.18l-.05.43c-2.9 23.92.64 57 3.47 61.88zm-14.29-59.83c-1.6 24.58-.15 46.75 3.53 53.93 1.41 3.37 3 5.13 4.48 5.13h5c-2.87-6.57-6.12-37.67-3.33-61.35h-7.28a2.69 2.69 0 00-2.38 2.29m217.35 45.63h-4l.11-.47c3.92-17.56 2.25-34.71 1.65-39.55v-.63h4.56a3.48 3.48 0 013.16 3c2.61 17.73-.63 33-3.87 36.7a2.11 2.11 0 01-1.52.89m-3.06-.77h3.06a1.48 1.48 0 00.94-.62c2.76-3.19 6.35-18 3.69-36.08a2.7 2.7 0 00-2.74-2.41h-3.36c.63 5.12 2.17 21.87-1.59 39.11m-216.42.77h-4a2.11 2.11 0 01-1.52-.89c-3.24-3.75-6.48-19-3.87-36.7a3.49 3.49 0 013.16-3h4.56v.63c-.6 4.84-2.28 22 1.65 39.55zm-5.91-39.88a2.7 2.7 0 00-2.74 2.41c-2.66 18.08.93 32.88 3.69 36.07a1.47 1.47 0 00.94.62h3.06c-3.76-17.24-2.22-34-1.59-39.11h-3.36zm176.83 22.2h-15.49v-.36c0-.21 0-.41-.06-.63v-.09c.26-2.4.52-4.87.78-7.53v-.35h12.94a3.23 3.23 0 012.25.87 3 3 0 01.7 2.32 16.91 16.91 0 01-1 5.51zm-14.77-.77h14.26a17.75 17.75 0 00.88-5 2.27 2.27 0 00-.49-1.75 2.71 2.71 0 00-2-.64H1006c-.25 2.52-.5 4.86-.75 7.15v.26m-85.63.77h-2.91l-.06-.32c-.56-3.12-.93-5.73-1.15-8.21v-.42h2.08v.34c.06.5.11.86.17 1.13.18.93.78 3.58 1.73 7zm-2.26-.77h1.25c-.88-3.2-1.43-5.67-1.61-6.55 0-.23-.09-.5-.13-.85h-.55c.21 2.25.55 4.62 1 7.41m-7.61.77H893l-.1-.23a17.12 17.12 0 01-1-5.51 3.13 3.13 0 01.71-2.32 3.23 3.23 0 012.24-.87h16v.43c-.36 3.06-.7 5.82-1 8.18zm-16.21-.77h15.6c.28-2.17.59-4.66.91-7.41H895.2a2.72 2.72 0 00-2 .64 2.34 2.34 0 00-.49 1.75 17.83 17.83 0 00.88 5m186.27.77h-3.7l.07-.45c.88-5.56 1.24-8.54 0-15.53l-.08-.45H1079.87c.76.31 1.33 1.62 1.68 3.89.62 4 .42 10.78-1.58 12.42zm-2.8-.77h2.51c1.45-1.44 1.85-7.44 1.21-11.62-.32-2.1-.81-3.06-1.15-3.27H1077a38 38 0 010 14.89m-239.6.77h-3.7l-.11-.09c-2-1.64-2.2-8.38-1.58-12.42.35-2.28.91-3.59 1.68-3.9H837.41l-.08.45a38.27 38.27 0 000 15.53zm-3.41-.77h2.51a38 38 0 010-14.89H834c-.34.21-.83 1.17-1.15 3.27-.64 4.18-.24 10.18 1.21 11.62m187-11.79h-15.32l.16-1.86.15-1.65v-.35h14.09l.09.26a21.18 21.18 0 01.74 3.15zm-14.48-.77h13.57a22.22 22.22 0 00-.54-2.32h-12.91l-.11 1.3zm-89.2.77h-2v-.45-3.49h1.73v.81c0 .87.09 1.77.14 2.64zm-1.23-.77h.41c0-.74-.08-1.5-.12-2.24v-.08h-.34v2.32m-4.77.77h-19.2l.08-.45a21.27 21.27 0 01.74-3.15l.09-.26h18.7v.43c-.12 1.07-.23 2.1-.34 3.09zm-18.26-.77h17.57q.13-1.13.26-2.32h-17.31a22.5 22.5 0 00-.54 2.32m179.83-13.1h-7.06v-.34c-.33-2.53-.71-4.89-1.15-7l-.1-.46h4c2.1 0 3.46 4 4.23 7.35zm-6.38-.77h5.41c-1-3.94-2.2-6.28-3.36-6.28h-3.07c.38 1.93.72 4 1 6.28m-218.73.77h-7.05l.11-.47c.77-3.35 2.13-7.35 4.23-7.35h4l-.1.46c-.44 2.12-.83 4.48-1.15 7zm-6.09-.77h5.41c.29-2.25.64-4.36 1-6.28H845c-1.16 0-2.41 2.34-3.37 6.28m220.37-7.31h-10.66l-.05-.33a87.52 87.52 0 00-2.92-13.16l-.16-.5h6.14c3.35 0 6.41 8.3 7.55 13.52zm-10-.77h9c-1.4-6.08-4.3-12.45-6.69-12.45h-5.08a89.31 89.31 0 012.74 12.45m-189.83.77h-10.6l.1-.47c1.14-5.23 4.2-13.52 7.56-13.52h6.13l-.16.5a88.08 88.08 0 00-2.91 13.16zm-9.71-.77h9a89.92 89.92 0 012.73-12.45h-5.08c-2.4 0-5.3 6.37-6.7 12.45m194-9.23h-12.78l-.06-.31c-1.69-8.39-3.88-13.6-6.14-14.64l.07.1-1-.24a1.68 1.68 0 00-.41-.05v-.77H1038c3.41 0 6.57 5.44 8.9 15.31l1 .6h-1.4zm-12.25-.77h11.82c-2.2-9.14-5.13-14.37-8.07-14.37h-9.46c2.69 2.19 4.55 8.67 5.71 14.37m-154.13.77h-14l.71-.55v-.05c2.33-9.87 5.49-15.31 8.9-15.31H887v.77c-2.54 0-5.08 5.41-7 14.83zm-12.44-.77h11.81c1.17-5.7 3-12.18 5.72-14.37h-9.47c-2.93 0-5.87 5.23-8.07 14.37" transform="translate(-831.74 -4438.59)"/><path class="cls-1" d="M929.13 4507a9.14 9.14 0 01-3.18-3.63c-.75-1.69-3.68-10.8-4.26-12.58.08.43 2.61 13.3 3.2 15.85a7.61 7.61 0 00.36 1.23 4.92 4.92 0 01.58.21c6.48 5.43 13.18 3.67 13.36 3.56-5.13-.56-7.93-3.38-10.05-4.65m-4 .79h.11l-.1-.06m0 0h.11l-.1-.06m4-.79a9.14 9.14 0 01-3.18-3.63c-.75-1.69-3.68-10.8-4.26-12.58.08.43 2.61 13.3 3.2 15.85a7.61 7.61 0 00.36 1.23 4.92 4.92 0 01.58.21c6.48 5.43 13.18 3.67 13.36 3.56-5.13-.56-7.93-3.38-10.05-4.65m0 0a9.14 9.14 0 01-3.18-3.63c-.75-1.69-3.68-10.8-4.26-12.58.08.43 2.61 13.3 3.2 15.85a7.61 7.61 0 00.36 1.23 4.92 4.92 0 01.58.21c6.48 5.43 13.18 3.67 13.36 3.56-5.13-.56-7.93-3.38-10.05-4.65m-4.05.8h.11l-.1-.06zm84.66-33c-.27-2.35-5.45-11.91-7.83-15.2-2.89-4-9.39-7-12.6-7.18H989a14.89 14.89 0 00-3.71.6 9.6 9.6 0 01-1.94.36l-1.94-.14a20.34 20.34 0 00-3.26-3l-.59-.42-.7-.18a20.37 20.37 0 00-3.56-.59c-.58 0-1.16-.07-1.72-.07a18.52 18.52 0 00-6.59 1.19c-.39-.37-.81-.76-1.26-1.17a15.64 15.64 0 00-5.77-3.67 22.19 22.19 0 00-6.77-1.17 13.57 13.57 0 00-11.23 5.51l-.15.19c-.15.14-.3.26-.46.37l-1.59-.56a16.91 16.91 0 00-5.95-1.14 18.73 18.73 0 00-7.11 1.51c-6.9 2.83-13.42 5.9-15 21.52-.43 4.16-.89 7.92-1.35 11.33q-.22 1.6-.44 3.09c-.22 1.54-.45 3-.68 4.39-.5 3.11-1 5.82-1.44 8.18-.77 4.09-1.41 7.11-1.75 9.28a74.35 74.35 0 00-.29 10.85l4 6.48c.54.82 1.22 1.8 1.89 2.73l2.33 3.22 5.29 1.44a31.13 31.13 0 016.5.94s4.07-2.13 15 1.87c5.58 2 7.08-1.79 7.59-3.91.56-2.3-.43-5-1.71-7-1-1.63-1.64-2.83-3.08-3.74a7.46 7.46 0 001.19-.63l.76.66.48.45a10 10 0 004.14 2.7 13.15 13.15 0 003.51.39 75.77 75.77 0 0011.7-1.39l1.09-.21 2.93-2.87a11 11 0 005.62 1.49 17.79 17.79 0 004-.52c7.33-1.69 11.19-3.74 12.54-6.74a11.28 11.28 0 003.46.55c3.3 0 8.13-1.5 12.45-8.63l.9-7.4.51-4.21c.18-1.45.35-2.77.5-4 .22-1.69.42-3.14.61-4.39s.34-2.24.49-3.09a22 22 0 011.09-4.81 11.81 11.81 0 00.17-3.3m-17.58 31.54v.08a23.57 23.57 0 009.7-2.6c-3.72 6.15-8 7.8-11.95 6.28a26 26 0 01-1.61-7.55 119.35 119.35 0 01-.39-12.17 72.56 72.56 0 013-14.72c.57-1.38-5.55 1.35-6.11 20.59-.12 4 1.62 11.61-3.35 14.08a36.83 36.83 0 01-6.43 2.54v.07a61.42 61.42 0 007.75-1.28 16.86 16.86 0 003.07-1c0 .4.08.81.12 1.21-.53 2.11-4.45 3.74-10.08 5-3.56.82-5.3.33-7-.64-.68-4.81-1.93-8.92-2.4-13.76-.36-3.77-.52-7.56-.57-11.34 0-2.79 1.46-9.88 2.68-13.52l.19-.23a1 1 0 00.24-.94c-.14-.56-3.28.57-4.12-2.77-3.64 10.46-1.4 29.89-.48 37.61a.69.69 0 010 .09l-.16.1a15.41 15.41 0 01-6.9 2.21v.05a16.37 16.37 0 005 .49 5.25 5.25 0 01-1.9.72 40 40 0 01-8.8.7v.06c3.25 2 8.72 2.25 12.69 1.34l-2 1.91s-10.07 2-13.34 1.07c-1.16-.32-2.22-1.57-3.06-2.31a189.69 189.69 0 00-1.76-19.21c-.82-5.84-1.86-23.18-1.76-25.15 0-.52.41-2.59-.19-2.55-.81.15-2.28 1.72-3.06 1.46s-3.69-1.8-3.32-1.15c.91 1.56 3.53 16 4.06 20.46a119.89 119.89 0 011.81 24.22 6.33 6.33 0 01-2.76 1.57c-1.79-.44-13.81-1.78-16.28-11.1a223.82 223.82 0 01-6.31-29.39.05.05 0 00-.11 0 44 44 0 00-.66 6c0 1-.06 2.06 0 3.09 0 1.47.11 2.93.24 4.39.24 2.75.65 5.47 1.14 8.18.54 3 1.17 5.92 1.78 8.84-.53.1-3 2.49-1.13 2.41 2.37-.11 6.24 9.4 17.81 12.18 3.49.84 8.38 3.56 7.34 7.87a1.61 1.61 0 01-.57.89 3.16 3.16 0 01-1 .54c-2.59.84-7.28-1.26-11.3-2.1l-1-.22a1.69 1.69 0 01.6-1.12 4.37 4.37 0 013.24-2.33 13.83 13.83 0 014.47.81c-2.9-.95-6.18-2.27-8.94-.37a7.65 7.65 0 00-2.58 3.83c-5.14-1.1-6.75-1.25-8.36-1.27 1.05-2.54.82-6.15 1.09-8.31 0 0-.07-.07-.08 0a18.72 18.72 0 01-3.05 6.2 20.49 20.49 0 00.64-4.22h-.06a16.51 16.51 0 01-2.95 3.39c-1-1.35-2-2.89-2.61-3.82-.8-1.28-.74-4.63.82-7.63 0 0 0-.06 0 0-1 1.54-2.22 3-3.3 4.52a74.35 74.35 0 01.24-10.09c.25-1.59.72-4.67 1.39-9.88.3-2.29.63-5 1-8.18.16-1.37.33-2.83.51-4.39.11-1 .23-2 .34-3.09.35-3.17.73-6.67 1.13-10.55 1.36-13.2 7.28-15.76 14-18.52a12.85 12.85 0 0110.3-.29 3.52 3.52 0 01-2.8 2.6v.08a12 12 0 008.64-3.29c.94-.82 4-7 14.29-3.69a11.81 11.81 0 014.3 2.81c1.83 1.66 3 3 4.89 4.1 0 0 .08 0 0-.05a1.72 1.72 0 01-.08-2 14.93 14.93 0 017-1 16.64 16.64 0 012.87.47 22.25 22.25 0 013.63 3.53c1.93 2.17 3.9 3.08 6.58 1.92a.06.06 0 000-.12 4.41 4.41 0 01-3-1.52c1.94.15 4.18-1 6.1-.94 2.17.09 8.86 2.68 10.92 5.53s5.45 11.69 5.63 13.22-.47 3-.3 4.48c.13 1.17-1.39 13.63-2.12 19.49a26.81 26.81 0 01-11 7.16m-66.21-3c-.75-1.69-3.68-10.8-4.26-12.58.08.43 2.61 13.3 3.2 15.85a7.61 7.61 0 00.36 1.23 4.92 4.92 0 01.58.21c6.48 5.43 13.18 3.67 13.36 3.56-5.13-.56-7.93-3.38-10.05-4.65a9.14 9.14 0 01-3.18-3.63m-.87 4.42h.11l-.1-.06zm0 0h.11l-.1-.06m4-.79a9.14 9.14 0 01-3.18-3.63c-.75-1.69-3.68-10.8-4.26-12.58.08.43 2.61 13.3 3.2 15.85a7.61 7.61 0 00.36 1.23 4.92 4.92 0 01.58.21c6.48 5.43 13.18 3.67 13.36 3.56-5.13-.56-7.93-3.38-10.05-4.65m0 0a9.14 9.14 0 01-3.18-3.63c-.75-1.69-3.68-10.8-4.26-12.58.08.43 2.61 13.3 3.2 15.85a7.61 7.61 0 00.36 1.23 4.92 4.92 0 01.58.21c6.48 5.43 13.18 3.67 13.36 3.56-5.13-.56-7.93-3.38-10.05-4.65m-4 .79h.11l-.1-.06m4-.79a9.14 9.14 0 01-3.18-3.63c-.75-1.69-3.68-10.8-4.26-12.58.08.43 2.61 13.3 3.2 15.85a7.61 7.61 0 00.36 1.23 4.92 4.92 0 01.58.21c6.48 5.43 13.18 3.67 13.36 3.56-5.13-.56-7.93-3.38-10.05-4.65m-4 .79h.11l-.1-.06" transform="translate(-831.74 -4438.59)"/></svg>