<svg id="Capa_1" data-name="Capa 1" xmlns="http://www.w3.org/2000/svg" viewBox="0 0 49.32 118.91"><defs><style>.cls-1{fill:#ff6d00}</style></defs><path class="cls-1" d="M1483.42 2335.19c0-3.16.78-7.73-.69-10.69-1.72-3.46-3.24-5.25-1-9.1.62-1 1.66-1.49 2.11-2.69 1.77-4.78-1-11-3.36-15a22.62 22.62 0 00-3.7-5c-3-2.81-3.75-3.77-3.72-8.33.75 0 1.5 0 2.25-.05 1.73-.07 1.74-2.77 0-2.7h-.93c.21-3.17 1.09-9.43-1.38-10.92-2.71-1.64-9.22-.56-12.24-.53-3.76 0-8.58-.51-12.25.48-4.17 1.13-2.76 7.55-2.77 11.2h-.56a1.35 1.35 0 000 2.7h1.82c0 3.64 0 4.77-2.65 7.21a27 27 0 00-3.23 3.24 23.56 23.56 0 00-5.35 14c-.05 3.69.68 3.91 2.46 6.67 4 6.21-1.6 6.87-2.55 11.9-1.31 7 0 15.53.05 22.7.05 5.25.13 10.49.17 15.73 0 4.71-.7 10.07.11 14.71 1.32 7.58 8.86 7.41 15 7.79s12.06 0 18.09 0c4.83 0 8.74 0 12-4 4.8-6 2.47-17.33 2.43-24.41 0-8.33 0-16.67-.1-25m-45-1.84v-1.73c14.07-.93 28.19-.06 42.28-.53.21 13.56.12 27.13.22 40.69v.06c-7 1.61-13.76.49-20.83.6s-14.22.67-21.42.27c0-13.12-.26-26.24-.26-39.35m10.35-58c.76-2.75 1.07-1.79 3-2.12 2.86-.49 6.17-.21 9.07-.25 2.48 0 5.95-.59 8.34.05 3.59 1 2.76 5.41 2.58 8.77q-11.61.38-23.24.19c0-2.1-.25-4.74.27-6.64m-6 42.05c-.6-1.75-2-2.44-3-3.89-1.34-2-1.34-3.4-1.1-5.88a20 20 0 0110.43-15.42 1.34 1.34 0 00.67-1.16v-6.37q10.34.13 20.68-.16v6.53a1.34 1.34 0 00.67 1.16 20.57 20.57 0 019.81 12.53c.8 2.83.92 5.83-.61 8.33-.77 1.26-2 2-2.58 3.46a6.88 6.88 0 000 5.85c.66 1.56 2.35 2.65 2.86 4.27a5.81 5.81 0 01.17 1.73c-14 .48-28.08-.38-42.08.52a13.45 13.45 0 012.44-4.79c1.52-2.2 2.56-4 1.63-6.72M1473 2386c-4.61 1-11.05.14-15.75.15a70.09 70.09 0 01-10.64-.5c-2-.3-5.07-.46-6.47-1.94-1.79-1.87-1.53-5.45-1.52-7.89v-.39c7.93.43 15.74-.4 23.66-.25 6.34.12 12.35.73 18.55-.55-.17 5.21-1.3 9.87-7.84 11.37" transform="translate(-1435.11 -2269.91)"/><path class="cls-1" d="M1452.61 2355c1.13 0 2.25-.13 3.37-.2-.9 3.91-1.59 7.83-3.24 11.53-.56 1.26 1.08 2.94 2.12 1.63l.21-.27c4.7-6 9-12.23 13.76-18.2a1.37 1.37 0 00-1-2.3c-1.77-.11-3.54-.16-5.31-.21.37-3.15.65-6.31 1-9.46a1.06 1.06 0 000-.72 1.14 1.14 0 00-1.31-.85 1.29 1.29 0 00-1.16.58c-3.56 5.27-6.37 11-9.61 16.45a1.36 1.36 0 001.16 2m6.39-1.29a1.36 1.36 0 00-1.3-1.71c-.9.08-1.79.11-2.69.16 1.78-3.12 3.5-6.28 5.31-9.37-.18 1.83-.37 3.65-.6 5.47a1.36 1.36 0 001.35 1.35l4.19.17q-3.92 5.1-7.76 10.26c.5-2.1.95-4.21 1.49-6.33M1453.35 2278.77v-2.44a1.35 1.35 0 00-2.69 0v2.44a1.35 1.35 0 002.69 0M1458.64 2278.77v-2.44a1.35 1.35 0 00-2.69 0v2.44a1.35 1.35 0 002.69 0M1463.94 2278.77v-2.44a1.35 1.35 0 00-2.69 0v2.44a1.35 1.35 0 002.69 0M1469.23 2278.77v-2.44a1.35 1.35 0 00-2.69 0v2.44a1.35 1.35 0 002.69 0M1445.75 2310.47c0-4.29 1.2-8.56 5.12-10.84a1.35 1.35 0 00-1.36-2.33c-4.73 2.76-6.45 7.92-6.45 13.17a1.35 1.35 0 002.69 0M1453 2297.84a1.35 1.35 0 000-2.69 1.35 1.35 0 000 2.69" transform="translate(-1435.11 -2269.91)"/></svg>