<svg data-name="Capa 1" xmlns="http://www.w3.org/2000/svg" viewBox="0 0 296.76 124.46"><path d="M33 15.09c-3.4 0-7 8.69-8.49 15.63h11.65a105 105 0 013.46-15.63h-6.63zM52.38 1c-3.93 0-7.49 6.78-10.08 17.75l.1.1-.07.05h14.85C59.41 7.84 62.48 1 65.87 1H52.38zm3.88 23.1h-12a3.54 3.54 0 00-3.56 2.73c-6.49 29-2.28 88.86 11.68 96.62h13.49c-6.79.01-19.94-64.75-9.61-99.35zM6.75 52.98H3.07c-2.46 1-3 16 0 18.51h3.68c-1.01-6.34-1.52-10.01-.01-18.52zm9.52-21.08c-1.77 0-3.37 3.17-4.55 8.34h7.37c.38-3 .84-5.78 1.37-8.34h-4.18zM222.9 52.98h-15.92c-.09 1-.2 2.23-.32 3.66h17.08a24.93 24.93 0 00-.85-3.67zm-149.56 0a24.93 24.93 0 00-.85 3.66h21.72c.13-1.17.27-2.39.41-3.66H73.33zm27.69 0h-1.18c-.06 1.22-.07 2.44 0 3.66h1.42c-.14-1.22-.2-2.47-.26-3.67zM35.48 35.93h-9.1a3.65 3.65 0 00-3.27 3.1c-1.8 27.63-.45 54.91 4.22 64 1.68 4 3.62 6.32 5.7 6.32h6.63c-3.6-6.1-7.59-45.42-4.2-73.43zm-16.95 9.5h-4.49a3.67 3.67 0 00-3.69 3.23c-3.6 24.42 2.27 43.92 5.92 43.92h4.18C15.17 68.99 18.46 46 18.51 45.42zM230.9 1.01h-.52a2.44 2.44 0 01.59.08zM71.7 33.5c1.5 0 2.79 6.24 3.45 15.38h5.23c.57-4.44-2.08-46.44-11.08-45.61-4.72 0-8.76 14.85-10.48 36-1.64 21 0 81.93 10.48 81.93 5.4 0 9.91-19.48 11.08-45.62H75.1c-.65 9.14-1.95 15.38-3.45 15.38-7-.47-4.24-51.46-1.33-56 .48-.94.93-1.47 1.36-1.47zm192.08-18.4h-6.63a104.23 104.23 0 013.46 15.63h11.65c-1.53-6.92-5.09-15.64-8.5-15.64zm-9.3 3.65C251.89 7.75 248.33 1 244.4 1h-13.52c3.4 0 6.47 6.84 8.69 17.9h14.86l-.05-.09zm1.6 8.09a3.54 3.54 0 00-3.56-2.73h-12c10.32 34.61-2.83 99.36-9.62 99.36h13.48c14-7.78 18.17-67.66 11.68-96.66zm37.64 26.14h-3.68c1.51 8.51 1 12.17 0 18.51h3.68c3-2.5 2.44-17.52-.02-18.52zm-13.2-21.08h-4.18c.52 2.56 1 5.35 1.36 8.34h7.38c-1.21-5.18-2.82-8.35-4.58-8.35zm-6.81 7.13a3.66 3.66 0 00-3.27-3.1h-9.12c3.39 28-.6 67.33-4.17 73.45h6.63c2.08 0 4-2.31 5.7-6.32 4.65-9.13 6-36.41 4.21-64.04zm12.73 9.63a3.67 3.67 0 00-3.69-3.23h-4.49c.05.58 3.34 23.58-1.93 47.16h4.18c3.65-.02 9.51-19.52 5.87-43.94zm-48.5-9.38c-1.73-21.17-5.77-36-10.49-36-9-.82-11.65 41.17-11.08 45.61h5.27c.65-9.14 2-15.38 3.45-15.38.43 0 .88.53 1.32 1.49 2.91 4.53 5.69 55.51-1.32 56-1.5 0-2.8-6.24-3.45-15.38h-5.26c1.17 26.13 5.68 45.62 11.08 45.62 10.49-.03 12.1-60.96 10.46-81.96zM101.85 63.2c-.07-.37-.14-.83-.2-1.37h-1.57c.29 3.25.77 6.47 1.35 9.67h2.46c-1.08-3.86-1.82-7.06-2.06-8.31zm-26.68-1.39h.4c-3.31 0-3.49 2.15-3.43 3.31a19.86 19.86 0 001.19 6.35h19.05c.35-2.71.75-5.91 1.19-9.67h-18.4zm145.47 0h-14.49c-.27 2.68-.58 5.7-.93 8.91 0 .26.05.51.07.76h17.59a19.73 19.73 0 001.19-6.35c.06-1.16-.12-3.32-3.43-3.32z" fill="none" stroke="#ff6d00" stroke-miterlimit="10" stroke-width="2"/><path d="M115.69 81.41a10.81 10.81 0 01-3.76-4.29c-.89-2-4.35-12.76-5-14.88.09.51 3.09 15.72 3.78 18.74a9.23 9.23 0 00.42 1.45 6 6 0 01.68.25c7.66 6.42 15.58 4.34 15.8 4.21-6.07-.66-9.38-4-11.89-5.49m-4.78.93l.12.05-.12-.07m0 0l.12.05-.12-.07m4.78-.93a10.81 10.81 0 01-3.76-4.29c-.89-2-4.35-12.76-5-14.88.09.51 3.09 15.72 3.78 18.74a9.23 9.23 0 00.42 1.45 6 6 0 01.68.25c7.66 6.42 15.58 4.34 15.8 4.21-6.07-.66-9.38-4-11.89-5.49m0 0a10.81 10.81 0 01-3.76-4.29c-.89-2-4.35-12.76-5-14.88.09.51 3.09 15.72 3.78 18.74a9.23 9.23 0 00.42 1.45 6 6 0 01.68.25c7.66 6.42 15.58 4.34 15.8 4.21-6.07-.66-9.38-4-11.89-5.49m-4.79.94l.12.05-.12-.07zm100.09-39c-.32-2.78-6.45-14.08-9.25-18-3.42-4.75-11.11-8.33-14.89-8.49h-.56a17.53 17.53 0 00-4.39.71 11.38 11.38 0 01-2.29.43l-2.29-.17a24.15 24.15 0 00-3.85-3.5l-.7-.5-.82-.22a24.19 24.19 0 00-4.21-.7c-.68-.06-1.37-.08-2-.08a21.87 21.87 0 00-7.8 1.41c-.46-.44-1-.9-1.49-1.38a18.53 18.53 0 00-6.82-4.34 26.26 26.26 0 00-8-1.38 16 16 0 00-13.27 6.52l-.18.22c-.18.16-.36.3-.54.44l-1.89-.67a20 20 0 00-7-1.35 22.12 22.12 0 00-8.41 1.79c-8.15 3.35-15.87 7-17.77 25.44-.51 4.92-1 9.37-1.6 13.39q-.26 1.89-.52 3.66c-.27 1.83-.54 3.56-.8 5.19-.6 3.68-1.18 6.89-1.7 9.67-.91 4.84-1.67 8.41-2.07 11a88 88 0 00-.34 12.82l4.76 7.66c.65 1 1.44 2.13 2.23 3.23l2.76 3.8 6.25 1.7c1.35 0 2.82.11 7.68 1.12s4.81-2.52 17.79 2.2c6.59 2.39 8.38-2.12 9-4.62.66-2.72-.51-5.89-2-8.31-1.2-1.93-1.94-3.35-3.64-4.42a8.71 8.71 0 001.41-.74l.9.78c.18.16.37.34.57.54a11.82 11.82 0 004.9 3.2 15.54 15.54 0 004.15.46 89.79 89.79 0 0013.83-1.65l1.29-.25 3.47-3.39a12.93 12.93 0 006.64 1.76 21.08 21.08 0 004.77-.61c8.67-2 13.23-4.42 14.82-8a13.32 13.32 0 004.1.65c3.9 0 9.61-1.77 14.71-10.2l1.06-8.75.61-5c.21-1.72.41-3.28.59-4.7.27-2 .5-3.72.72-5.19s.4-2.64.58-3.66c.87-5.16 1.22-5.33 1.28-5.69a14 14 0 00.21-3.9M190.29 80.5a.05.05 0 000 .1 27.84 27.84 0 0011.47-3.07c-4.4 7.28-9.48 9.22-14.12 7.43-.92-1.87-1.62-5.75-1.9-8.92a141.26 141.26 0 01-.46-14.39c0-3.4 2.37-14.55 3.56-17.4.68-1.64-6.57 1.59-7.23 24.34-.14 4.73 1.92 13.73-4 16.65a43.66 43.66 0 01-7.6 3v.08c3.09-.51 6.14-.61 9.16-1.51a19.81 19.81 0 003.63-1.21c0 .48.1 1 .14 1.43-.63 2.49-5.26 4.42-11.91 6-4.2 1-6.27.39-8.25-.76-.8-5.69-2.29-10.55-2.83-16.27-.43-4.46-.61-8.94-.68-13.41 0-3.3 1.73-11.68 3.17-16 .08-.09.15-.18.23-.27a1.18 1.18 0 00.28-1.12c-.17-.66-3.88.67-4.87-3.27-4.3 12.37-1.65 35.34-.57 44.47a.76.76 0 010 .11l-.19.12a11.9 11.9 0 01-2.61 1.32c-1.86.73-3.45 1.46-5.55 1.29v.06a19.34 19.34 0 005.91.58 6.23 6.23 0 01-2.24.85 47.28 47.28 0 01-10.41.83v.07c3.84 2.36 10.31 2.66 15 1.58l-2.31 2.26s-11.9 2.35-15.77 1.26c-1.37-.38-2.63-1.86-3.62-2.73a224.16 224.16 0 00-2.08-22.71c-1-6.9-2.2-27.4-2.08-29.73 0-.61.48-3.06-.23-3-1 .17-2.69 2-3.61 1.73s-4.37-2.13-3.92-1.36c1.07 1.85 4.17 19 4.8 24.19a141.72 141.72 0 012.14 28.63 7.48 7.48 0 01-3.27 1.86c-2.12-.52-16.33-2.1-19.24-13.12-2.52-9.51-5.56-20.61-7.46-34.74a.065.065 0 00-.13 0 52.13 52.13 0 00-.79 7.14c-.06 1.22-.07 2.44 0 3.66q0 2.6.29 5.19c.29 3.25.77 6.47 1.35 9.67.64 3.52 1.38 7 2.11 10.45-.62.12-3.5 2.95-1.34 2.84 2.81-.13 7.38 11.11 21.06 14.41 4.12 1 9.91 4.21 8.68 9.3a1.9 1.9 0 01-.67 1 3.72 3.72 0 01-1.23.64c-3.06 1-8.6-1.49-13.36-2.48l-1.23-.26c.23-1 .1-.42.71-1.33 1-1.45 2-2.55 3.83-2.76 1.69-.18 3.64.55 5.28 1v-.05c-3.43-1.12-7.31-2.69-10.57-.44a9 9 0 00-3 4.53c-6.08-1.31-8-1.48-9.89-1.49 1.25-3 1-7.28 1.29-9.83 0-.05-.09-.08-.1 0a22.15 22.15 0 01-3.61 7.33 24.21 24.21 0 00.75-5h-.07a19.57 19.57 0 01-3.49 4c-1.16-1.6-2.37-3.42-3.08-4.51-.95-1.51-.88-5.47 1-9h-.05c-1.2 1.83-2.63 3.55-3.9 5.34a88.06 88.06 0 01.29-11.93c.3-1.88.85-5.52 1.64-11.68.35-2.71.75-5.91 1.19-9.67.19-1.62.39-3.35.6-5.19.13-1.17.27-2.39.41-3.66.42-3.74.86-7.89 1.33-12.47 1.61-15.61 8.61-18.64 16.52-21.89 6.14-2.53 10-1.13 12.18-.35-.28 1.57-1.58 2.58-3.3 3.08-.05 0-.06.09 0 .09a14.14 14.14 0 0010.21-3.89c1.11-1 4.75-8.29 16.89-4.36a13.94 13.94 0 015.08 3.32c2.16 2 3.54 3.56 5.78 4.84 0 0 .09 0 .06-.06a2 2 0 01-.09-2.33 17.63 17.63 0 018.24-1.2 19.75 19.75 0 013.39.56 26.22 26.22 0 014.29 4.17c2.28 2.57 4.61 3.64 7.78 2.27a.07.07 0 000-.14 5.23 5.23 0 01-3.61-1.8c2.3.17 4.94-1.21 7.22-1.11 2.56.11 10.48 3.17 12.9 6.54s6.45 13.82 6.65 15.63-.56 3.5-.35 5.3c.16 1.38-1.64 16.11-2.5 23a31.7 31.7 0 01-13 8.46m-78.28-3.55c-.89-2-4.35-12.76-5-14.88.09.51 3.09 15.72 3.78 18.74a9.23 9.23 0 00.42 1.45 6 6 0 01.68.25c7.66 6.42 15.58 4.34 15.8 4.21-6.07-.66-9.38-4-11.89-5.49a10.81 10.81 0 01-3.76-4.29m-1 5.23l.12.05-.12-.07zm0 0l.12.05-.12-.07m4.78-.93a10.81 10.81 0 01-3.76-4.29c-.89-2-4.35-12.76-5-14.88.09.51 3.09 15.72 3.78 18.74a9.23 9.23 0 00.42 1.45 6 6 0 01.68.25c7.66 6.42 15.58 4.34 15.8 4.21-6.07-.66-9.38-4-11.89-5.49m0 0a10.81 10.81 0 01-3.76-4.29c-.89-2-4.35-12.76-5-14.88.09.51 3.09 15.72 3.78 18.74a9.23 9.23 0 00.42 1.45 6 6 0 01.68.25c7.66 6.42 15.58 4.34 15.8 4.21-6.07-.66-9.38-4-11.89-5.49m-4.78.93l.12.05-.12-.07m4.78-.93a10.81 10.81 0 01-3.76-4.29c-.89-2-4.35-12.76-5-14.88.09.51 3.09 15.72 3.78 18.74a9.23 9.23 0 00.42 1.45 6 6 0 01.68.25c7.66 6.42 15.58 4.34 15.8 4.21-6.07-.66-9.38-4-11.89-5.49m-4.78.93l.12.05-.12-.07" fill="#ff6d00"/></svg>