<svg data-name="Capa 1" xmlns="http://www.w3.org/2000/svg" viewBox="0 0 82.05 66.3"><path d="M79.81 50.2c-2.14-2.75-6.17-3.73-9.1-5.26-1.13-.59-2.3-1.13-3.42-1.74 1.07-.21 1-1.93-.11-1.84-.8.06-1.59.08-2.39.1a25.06 25.06 0 01-2.88-3.23c1.17-.12 1.17-2 0-1.86-.49 0-1 0-1.47.06-1-1.05-1.87-2.11-2.77-3.18h.13c1.19-.09 1.2-2 0-1.87-.53 0-1.06 0-1.6.07q-1.24-1.56-2.41-3.19h.08c1.19-.09 1.2-2 0-1.87-.44 0-.88 0-1.32.05-.42-.63-.85-1.25-1.25-1.9-.23-.37-.46-.81-.69-1.28h.14c1.19-.09 1.2-2 0-1.87h-1c-1-2.1-2.22-4.3-3.94-5a3.72 3.72 0 00-.75-.21c-.3-.93-.65-1.88-1-2.77a2.28 2.28 0 00-.7-1.15c-1.17-.82-3.59-.59-4.87-.31-3.76.82-4.39 4.18-4.58 7.52a6.63 6.63 0 01-3.18.16 14.24 14.24 0 01-7.74-5.36c-1.34-2.11-.51-5.48-2.69-7a3.1 3.1 0 00-.73-.36c1.82-2.52.8-6.52-2.83-6.9A2.34 2.34 0 0014 2.33a5.07 5.07 0 001.15 2.29 3.1 3.1 0 01-.57 3.75c-4.54 3.72-12.2 8.12-11.11 15C-.8 25.18-.6 32.1 1.93 35.25c4.63 5.75 12.09 8.71 18.6 11.67a75.2 75.2 0 019.79 5.05c4 2.59 7.17 6.12 10.87 9.1 5.76 4.64 10.49 5.08 17.64 5.17 4.13 0 8.27.06 12.4-.25 2.88-.21 5.42-.28 7.66-2.27a9.76 9.76 0 001-13.55m.35 6.6c-5.05 3.12-12.91 2.59-18.61 2a28.12 28.12 0 01-7.68-1.93c1.21-3.66 6.37-4.5 9.57-4.12a17.08 17.08 0 004.66.31c2.57-.41 4.75-2.51 6.07-4.72a12.22 12.22 0 012.56 1.58 10 10 0 013.44 6.86m-32.72-35.3c-1.3 0-2.61 0-3.92-.09s-1.2 1.79 0 1.87c1.69.11 3.38.1 5.07 0 .63 1.1 1.2 2.21 1.75 3.19-1.23 0-2.46 0-3.68-.1s-1.2 1.79 0 1.87c1.62.1 3.24.1 4.86 0 .72 1.07 1.46 2.13 2.23 3.17-1.05 0-2.1 0-3.16-.09s-1.2 1.79 0 1.87c1.54.1 3.07.1 4.6.06.84 1.07 1.7 2.12 2.58 3.15-1 0-2 0-3.07-.09-1.2-.08-1.2 1.79 0 1.87 1.55.1 3.09.1 4.64.06.92 1.05 1.86 2.1 2.79 3.13-.71 0-1.42 0-2.14-.06-1.2-.08-1.2 1.79 0 1.87 1.38.09 2.76.1 4.15.08a15.78 15.78 0 001.65 1.09c-6.08 3.59-11.73-4.19-15.18-8.32a103.53 103.53 0 01-11.24-17.1 7.44 7.44 0 013.43-.85c2 .2 3.42 1.6 4.64 3.33m-8.83-7.72a5.3 5.3 0 013.19 0A5 5 0 0143.12 16a23 23 0 00-4.78 1.56c-.82.32-1.67.72-2.54 1.08.15-2.14.51-4.33 2.91-5m-18.3-.45a11.44 11.44 0 003.32 4.58c3.26 2.75 7.5 4.56 11.59 3.07a27.27 27.27 0 002.47-1.16c.43.8.9 1.55 1.35 2.34-4.53 1.81-8.61 2.39-13.38.69-5.85-2.09-8.89-7-10.08-13l.71-.57c2.62-2.21 3.37 2.17 4 4m-3.06-11.2a2.46 2.46 0 01.2 4.25.94.94 0 00-.13.14 4.28 4.28 0 00-.34-2.29c-.24-.51-.69-.9-.92-1.4-.46-1 .44-1.09 1.19-.69m-3.3 9c2.91 12.38 14.39 17.51 26 12.68a124.34 124.34 0 0012.69 17.79c3.7 4.32 9.93 7.36 15 3.85l.77.4c1.16.59 2.61 1.15 4 1.75a7.12 7.12 0 01-6.69 3.62c-1.85-.08-3.6-.64-5.47-.45-3.06.32-7 2.32-8.13 5.38a48.52 48.52 0 01-10.11-6.63l-.35-.3a.94.94 0 00.33-.41c1.82-4.43-.21-9.72-3.76-12.69-4.2-3.51-9.18-3.74-14.29-2.59a.88.88 0 00-.38.18C17.71 29.81 11.5 26.47 5.3 23.26c-1.12-5.45 4.5-9.25 8.7-12.31M40.27 48c-4.79-4.3-8.84-9.21-14.31-12.8l-.23-.14c3.72-.65 7.24-.41 10.52 1.89s5.49 7 4 11.06m37.52 14c-3 2.34-7.17 2.21-10.78 2.32-5.59.18-12.8 1.17-18.14-.69-6.19-2.15-10.31-7.85-15.41-11.65s-11.34-6.2-17.17-9a50.17 50.17 0 01-9.25-5.4c-1.58-1.22-3.72-2.83-4.67-4.62-1.11-2.09-.69-7 2-7.95 7.69 4 15.66 8 22.68 13.1s12.39 12.31 19.85 17.2a33.37 33.37 0 0017.53 5.51c4.85.22 10.85.42 15.44-1.78a6 6 0 01-2 2.93" fill="#ff6d00"/></svg>