<svg id="Capa_1" data-name="Capa 1" xmlns="http://www.w3.org/2000/svg" viewBox="0 0 106.46 106.46"><defs><style>.cls-1{fill:#ff6d00}</style></defs><path class="cls-1" d="M980.69 2276.13a53.23 53.23 0 1053.23 53.23 53.23 53.23 0 00-53.23-53.23m0 103.54a50.31 50.31 0 1150.31-50.31 50.31 50.31 0 01-50.31 50.31" transform="translate(-927.46 -2276.13)"/><path class="cls-1" d="M974 2335.11c4 3 8.76 3.37 11.89-1a8.36 8.36 0 00.09-10.1 2.73 2.73 0 00-.36-1.05c1.77-4.86 3.5-9.73 5.23-14.6 1.41-4-4.94-5.72-6.34-1.75q-2.47 7-5 14c-7.32.21-13.09 8.85-5.5 14.56m5.69-8.06a3.58 3.58 0 00.83.37c.06 0 .08.11.14.15 2 1.46-1.53 5.15-3.3 1.7-.85-1.65.82-2.33 2.34-2.22M953 2350c-5.8-6.55-9.47-16.11-7.22-24.81 1.18-4.54-5.92-6.22-7.1-1.67-2.93 11.29 1.79 23.3 9.29 31.76 3.11 3.51 8.12-1.79 5-5.28" transform="translate(-927.46 -2276.13)"/></svg>