<svg xmlns="http://www.w3.org/2000/svg" viewBox="0 0 98.59 31.86"><defs><clipPath id="clip-path" transform="translate(-910.7 -903)"><path fill="none" d="M943.65 903h33.5v31.85h-33.5z"/></clipPath><style>.cls-6{fill:#0bc9ff}</style></defs><g style="isolation:isolate"><g id="Capa_1" data-name="Capa 1"><g clip-path="url(#clip-path)"><path fill="#ff6d00" d="M51.52 4.21L49.7 0l-4.76 11.05-11.99 1.13 9.04 7.94-.06.26-2.57 11.48 3.59-2.13 6.76-4.01 10.35 6.13-2.64-11.74 6.66-5.87 2.37-2.08-11.98-1.12-2.95-6.83z"/></g><path class="cls-6" d="M16.23 12.73l-1.51-.14-1.44-3.34v-.01l-1.82-4.2-3.27 7.55-8.19.77 6.19 5.44-1.81 8.03 7.09-4.2 7.08 4.2-1.81-8.03 3.81-3.36 2.37-2.09-6.69-.62zM91.9 12.73l-1.51-.14-1.44-3.34v-.01l-1.81-4.2-3.27 7.55-8.2.77 6.19 5.44-1.8 8.03 7.08-4.2 7.08 4.2-1.8-8.03 3.81-3.36 2.36-2.09-6.69-.62z"/></g></g></svg>