<svg id="Capa_1" data-name="Capa 1" xmlns="http://www.w3.org/2000/svg" viewBox="0 0 60.31 82.99"><defs><style>.cls-1{fill:#ff6d00}</style></defs><path class="cls-1" d="M1500 1943c.08-11.57 1.72-23.23-.24-34.74-.79-4.62-2.4-4.31-6.91-4.37s-8.82 0-13.22-.19h-.11c-.68-.41-1.38-.82-2.08-1.27-2.28-1.49-1.05-1.61-.72-4a5.8 5.8 0 00-.79-4.26c-2-2.8-7.49-2.63-10-.71-2.93 2.2-.9 4.5-1.59 7.15-.31 1.18-2.82 1.94-4.25 3a.84.84 0 00-.16 0c-4.9.1-11.81-1-16.46.92-2.09.85-2.44 2.13-2.62 4.25-.31 3.69-.18 7.52-.26 11.23-.21 9.9-.16 19.8-.05 29.7q.06 5.7.16 11.4c0 2.94-.52 6.76.81 9.49 2.63 5.4 9.32 4.37 14.26 4.44 8.72.12 17.41-.36 26.13-.29 3.46 0 6.89-.34 10.34-.32 2.85 0 4.9.27 6.59-2.39 2.13-3.35 1.16-8.55 1.19-12.3.05-5.56 0-11.12 0-16.68m-34.07-40.59a1 1 0 00.43-1.06c-.57-2.71-1.5-5.68 1.92-7 2.06-.8 5.63-.57 6.56 1.9.56 1.49-.36 3.57-1 4.89a1 1 0 00.15 1.13c2.13 1.78 5.33 2.77 7 5a4.12 4.12 0 01.93 3.38c-.85 3.52-4.59 3-7.47 3-3.56 0-7.12.12-10.69.12a11 11 0 01-3.32-.09c-2-.79-1.38-1-1.65-2.59a19.14 19.14 0 010-2.71c.38-3.06 4.71-4.78 7.2-6m18.06 9c1.74.06 3.49.23 5.21.21a8.61 8.61 0 001.87.06 7 7 0 010 2.3c0 3.42.06 6.85.08 10.27q.09 14.66.06 29.33c0 3.44 0 6.87-.09 10.31 0 .33.17 2-.09 2.26-.86.83-5.66 0-7 .15a109.82 109.82 0 01-11.88.53c-4.45-.12-8.78.21-13.26.24-2.76 0-7.71.73-8.86-1.95-.69-1.6-.47-4.15-.57-5.87-.51-8.85-.11-17.71-.38-26.56 0-4 .11-8 .15-12 0-1.62-1-7.18-.12-8.56.76-1.19 5.39-.88 7.64-.76 0 1.65.34 3.3 1.69 4 2.42 1.18 7.18.16 9.73.13 3.26 0 6.51 0 9.77-.07 4.14-.14 6-.82 6-4m14.38 23.28c-.4 8.88-.18 17.77-.28 26.65-.06 4.87 1 10.78-5.27 11.14-2.92.16-5.88.31-8.81.32-6.46 0-12.87.11-19.33.25-3.62.08-7.25.06-10.88 0-1.85 0-4.26.29-6.08-.16-5.46-1.34-5.11-5.83-5.18-10.22q-.08-5.16-.15-10.33c-.1-7.69-.15-15.39-.1-23.08 0-4.25.08-8.49.2-12.74.06-2.24-.63-6.52.29-8.59 1.48-3.37 10.55-2.71 15.34-2.54a5.75 5.75 0 00-1.16 2.52.89.89 0 00-.11.45v1.16c-2.45-.16-6.64-.65-8.36.34s-1.16 3.36-1.1 5.17c.19 5.89-.16 11.79-.1 17.69.29 9.37-.2 18.75.48 28.12.16 2.2-.05 5.63 1.79 7.14.9.73 4 .75 5.29.85a52.4 52.4 0 007.41 0c5-.29 9.92-.48 14.88-.39 4 .08 8-.19 12-.35 1.43-.06 3 0 3.71-1.42.91-1.71.2-5.66.22-7.5.1-11.09 0-22.18 0-33.26 0-4.34.12-8.73-.11-13.06s-5.67-3.41-9.16-3.35c-.05-.34-.12-.69-.2-1.07a5.62 5.62 0 00-1.52-2.84l4.88.06 5.08.06c3.32 0 4.87-.39 5.91 3 2.41 7.85.77 17.91.41 26" transform="translate(-1440.36 -1891.99)"/><path class="cls-1" d="M1472.17 1924.25a50.83 50.83 0 00-8.54-.1c-1.19.12-1.2 2 0 1.87a48.33 48.33 0 018.54.1 21.84 21.84 0 004-.25 37 37 0 016 .1.94.94 0 000-1.87c-1.46-.06-2.91-.33-4.37-.29-1.9.06-3.71.54-5.63.43M1463.31 1934.26a.94.94 0 000 1.87c3.33-.11 6.66-.15 10 0a73.81 73.81 0 009.18-.21c1.2-.08 1.2-1.95 0-1.87-6.38.42-12.74 0-19.17.18M1482.7 1944.26c-3.36.14-6.71.23-10.07.17s-6.5-.42-9.79.44a.94.94 0 00.5 1.8c3.44-.91 7-.39 10.49-.36 3 0 5.91-.06 8.87-.19a.94.94 0 000-1.87M1482.66 1954.57c-6.59.87-13.1-1.2-19.6 0-1.18.22-.68 2 .5 1.8 6.28-1.16 12.7.91 19.1.06 1.18-.16 1.19-2 0-1.87M1459.74 1924.43a11 11 0 00-1.71-.06.94.94 0 000 1.87 11 11 0 011.71.06c1.19.13 1.19-1.74 0-1.87M1457.91 1936.18s.87-.06.7-.25a1 1 0 001.46-.15.94.94 0 00-.15-1.13c-.54-.62-1.83-.41-2.52-.24a.94.94 0 00.5 1.8M1459.44 1945h-1.68a.94.94 0 000 1.87h1.68a.94.94 0 000-1.87M1459.34 1954.63l-1.54.06a.94.94 0 000 1.87l1.54-.06a.94.94 0 000-1.87M1470.28 1898.72a.94.94 0 000-1.87.94.94 0 000 1.87M1462.4 1910.85c.07-.82-.22-1.67.27-2.39a4.49 4.49 0 011.83-1.45c1.08-.52.14-2.13-.94-1.62a6.24 6.24 0 00-2.52 2.14c-.71 1.05-.41 2.12-.51 3.31s1.77 1.19 1.87 0M1466.35 1905.94a.94.94 0 000-1.87.94.94 0 000 1.87" transform="translate(-1440.36 -1891.99)"/></svg>