<svg id="Capa_1" data-name="Capa 1" xmlns="http://www.w3.org/2000/svg" viewBox="0 0 40.76 40.98"><defs><style>.cls-1{fill:#fff;fill-rule:evenodd}</style></defs><path class="cls-1" d="M1661.5 9142.69l.63-2.42c.67-2.46 1.37-4.92 2-7.39a1.8 1.8 0 00-.12-1.19 20.31 20.31 0 118.78 8.56 2 2 0 00-1.25-.14c-5.38 1.35-9 2.36-10 2.58m4.73-4.67c2-.53 3.89-1 5.74-1.52a1.67 1.67 0 011.39.2 16.65 16.65 0 0011.26 2.12 17 17 0 10-17.51-8.58 3.54 3.54 0 01.38 3.23c-.51 1.43-.82 2.92-1.26 4.54" transform="translate(-1661.5 -9101.71)"/><path class="cls-1" d="M1687.24 9131.79c-4-.14-10.29-3.27-14.62-10.8a6.1 6.1 0 01.94-7.81 2.83 2.83 0 012.61-.39 1.06 1.06 0 01.56.62c.58 1.31 1.14 2.63 1.65 4 .27.71-.22 1.38-1.25 2.56a.88.88 0 00-.14 1.15 13.86 13.86 0 007.05 6.06.85.85 0 001.07-.29c1.62-2 1.79-2.56 2.64-2.15 4.11 2 4.43 2 4.45 2.51.14 3.46-3 4.71-5 4.57" transform="translate(-1661.5 -9101.71)"/></svg>