<svg id="Capa_1" data-name="Capa 1" xmlns="http://www.w3.org/2000/svg" viewBox="0 0 27.15 27.29"><defs><style>.cls-1{fill:#0bc9ff;fill-rule:evenodd}</style></defs><path class="cls-1" d="M81.91 61c.15-.59.29-1.1.42-1.62.45-1.64.91-3.27 1.33-4.92a1.2 1.2 0 00-.08-.79 13.53 13.53 0 115.85 5.7 1.33 1.33 0 00-.83-.09c-3.58.9-6 1.57-6.69 1.72m3.15-3.11c1.35-.35 2.59-.66 3.82-1a1.11 1.11 0 01.92.13 11.09 11.09 0 007.5 1.42 11.31 11.31 0 10-11.66-5.72 2.35 2.35 0 01.25 2.15c-.33 1-.54 1.95-.83 3" transform="translate(-81.91 -33.7)"/><path class="cls-1" d="M99.05 53.73c-2.64-.09-6.85-2.18-9.74-7.19a4.07 4.07 0 01.62-5.2 1.88 1.88 0 011.74-.26.71.71 0 01.37.41c.38.87.76 1.75 1.1 2.64.18.47-.15.92-.83 1.71a.58.58 0 00-.09.77 9.24 9.24 0 004.7 4 .57.57 0 00.71-.19c1.08-1.32 1.19-1.7 1.76-1.43 2.74 1.31 2.95 1.36 3 1.67a3 3 0 01-3.3 3" transform="translate(-81.91 -33.7)"/></svg>